<svg width="241" height="24" viewBox="0 0 241 24" fill="none" xmlns="http://www.w3.org/2000/svg">
<g clip-path="url(#clip0_2038_446)">
<path d="M12.2191 4.20133C7.74529 4.20133 4.68019 7.68533 4.68019 11.9933C4.68019 16.2693 7.74396 19.7853 12.2191 19.7853C15.661 19.7853 18.4172 17.6493 19.1722 14.1667H12.2191V9.82H25.8176V14.1627H23.4103C22.8564 19.9907 18.107 23.988 12.2204 23.988C5.061 23.9867 0 18.8867 0 11.9933C0 5.10133 5.061 0 12.2191 0C14.8368 0 17.4159 0.793333 19.6888 2.69067L17.0697 6.03333C15.6583 4.82667 14.01 4.20133 12.2178 4.20133H12.2191ZM27.466 11.9933C27.466 5.10133 32.5283 0 39.4095 0C46.26 0 51.2864 5.10133 51.2864 11.9933C51.2864 18.8867 46.26 23.988 39.4095 23.988C32.5283 23.988 27.466 18.8867 27.466 11.9933ZM39.4095 19.6467C43.5744 19.6467 46.6049 16.4427 46.6049 11.9933C46.6049 7.54533 43.5784 4.34133 39.4108 4.34133C35.21 4.34133 32.1462 7.54533 32.1462 11.9947C32.1462 16.4427 35.214 19.6467 39.4108 19.6467H39.4095ZM54.3155 11.9933C54.3155 5.10133 59.3765 0 66.259 0C73.1096 0 78.1359 5.10133 78.1359 11.9933C78.1359 18.8867 73.1096 23.988 66.259 23.988C59.3765 23.988 54.3155 18.8867 54.3155 11.9933ZM66.259 19.6467C70.4239 19.6467 73.4544 16.4427 73.4544 11.9933C73.4544 7.54533 70.4279 4.34133 66.2604 4.34133C62.0595 4.34133 58.9957 7.54533 58.9957 11.9947C58.9957 16.4427 62.0582 19.6467 66.259 19.6467ZM81.4407 23.7013V0.264H88.2899C95.3468 0.264 100.165 4.57333 100.165 11.984C100.165 19.3933 95.3455 23.7013 88.2899 23.7013H81.4407ZM88.2899 19.36C92.9048 19.36 95.4853 16.9827 95.4853 11.9827C95.4853 6.984 92.9048 4.60667 88.2899 4.60667H86.0556V19.36H88.2899ZM111.345 0.264C116.024 0.264 119.917 3.02133 119.917 8.29467C119.917 11.5347 118.194 13.9467 115.683 15.224L121.09 23.7013H115.721L111.069 16.2213H108.075V23.7013H103.461V0.264H111.345ZM111.242 12.016C113.273 12.016 115.233 11.4987 115.233 8.296C115.233 5.05333 113.273 4.60667 111.242 4.60667H108.075V12.016H111.242ZM138.301 0.264V4.60667H128.317V9.77733H136.992V14.1187H128.317V19.36H138.711V23.7013H123.702V0.264H138.301ZM141.125 11.9933C141.125 5.10133 146.288 0 153.344 0C160.366 0 164.977 5.10133 164.977 11.9933H160.534C160.534 7.68533 157.679 4.20133 153.34 4.20133C148.967 4.20133 145.801 7.68533 145.801 11.9933C145.801 16.372 148.967 19.852 153.135 19.852C154.444 19.852 155.751 19.576 156.92 18.784L152.516 14.372L155.579 11.304L165.182 20.92L162.118 23.9867L159.948 21.8147C157.815 23.4707 155.473 23.988 153.131 23.988C146.284 23.988 141.125 18.8867 141.125 11.9933ZM168.282 15.4987V0.264H172.893V15.4987C172.893 18.152 174.304 19.636 176.885 19.636C179.464 19.636 180.875 18.152 180.875 15.4987V0.264H185.486V15.4987C185.486 20.8053 181.733 23.9773 176.879 23.9773C172.027 23.9773 168.282 20.8067 168.282 15.4987ZM203.664 0.264V4.60667H193.684V9.77733H202.359V14.1187H193.684V19.36H204.078V23.7013H189.069V0.264H203.664ZM214.858 4.20667C213.204 4.20667 212.068 5.13867 212.068 6.48133C212.068 7.62 212.655 8.412 214.96 9.27467C216.027 9.652 216.921 9.928 217.955 10.2733C221.432 11.48 223.254 13.5467 223.254 16.96C223.254 20.7187 220.157 23.992 215.337 23.992C212.068 23.992 209.14 22.784 206.629 20.2333L209.209 16.9227C211.342 18.784 213.308 19.7853 215.542 19.7853C217.196 19.7853 218.536 18.7507 218.536 17.1653C218.536 15.9253 217.815 15.0947 215.92 14.4413L212.959 13.444C208.827 12.064 207.347 9.44666 207.347 6.68667C207.347 2.62 210.653 0 214.854 0C217.951 0 220.05 1.31067 221.843 2.99867L219.295 6.272C217.61 4.86267 216.06 4.20667 214.858 4.20667ZM240.534 0.264V4.60667H234.821V23.7013H230.206V4.60667H224.492V0.264H240.534Z" fill="#EED445"/>
</g>
<defs>
<clipPath id="clip0_2038_446">
<rect width="241" height="24" fill="white"/>
</clipPath>
</defs>
</svg>
