<svg width="213" height="33" viewBox="0 0 213 33" fill="none" xmlns="http://www.w3.org/2000/svg">
<g clip-path="url(#clip0_2038_413)">
<path d="M13.349 13.351L18.886 7.81396L11.072 0.00195312H0V32.1729H8.09299V8.09695L13.349 13.351Z" fill="#EED445"/>
<path d="M26.9232 16.06L42.4911 0H32.1161L16.0562 16.06L32.1712 32.175H43.2462L26.9232 16.06Z" fill="#EED445"/>
<path d="M26.9232 16.06H16.0562L32.1161 0H42.4911L26.9232 16.06Z" fill="#EED445"/>
<path d="M26.9232 16.0601H16.0562L32.1712 32.1781H43.2462L26.9232 16.0601Z" fill="#EED445"/>
<path d="M13.929 13.9289L19.463 8.3949L11.072 0.00390625H0L8.09299 8.09689L13.929 13.9289Z" fill="#EED445"/>
<path d="M56.6469 29.6909C56.813 29.9134 56.8993 30.1853 56.8919 30.4629C56.8997 30.6644 56.8547 30.8644 56.7614 31.0431C56.6681 31.2219 56.5297 31.3731 56.3599 31.4819C55.8938 31.7504 55.3588 31.8756 54.8219 31.8419H52.1079V26.8149H54.6789C55.192 26.7816 55.703 26.9054 56.1439 27.1699C56.3016 27.2742 56.4302 27.4168 56.5176 27.5843C56.6051 27.7519 56.6485 27.939 56.6439 28.1279C56.6474 28.3549 56.5863 28.5782 56.4679 28.7719C56.3467 28.9656 56.1735 29.1212 55.9679 29.2209C56.2358 29.3069 56.4721 29.4705 56.6469 29.6909ZM53.5159 27.8419V28.8129H54.4919C54.9719 28.8129 55.2109 28.6489 55.2109 28.3239C55.2109 27.9989 54.9729 27.8419 54.4919 27.8419H53.5159ZM55.4559 30.3049C55.4559 29.9655 55.2073 29.7956 54.7099 29.7949H53.5169V30.8139H54.7079C55.2079 30.8149 55.4559 30.6509 55.4559 30.3049Z" fill="#EED445"/>
<path d="M66.242 30.507H65.466V31.843H64.043V26.816H66.343C66.7496 26.8063 67.1535 26.8833 67.528 27.042C67.8482 27.1752 68.1201 27.4029 68.3075 27.6947C68.495 27.9864 68.5889 28.3284 68.577 28.675C68.5847 29.01 68.4959 29.3402 68.321 29.626C68.1445 29.9042 67.8913 30.1254 67.592 30.263L68.676 31.842H67.154L66.242 30.507ZM66.917 28.129C66.7271 27.9871 66.4924 27.9185 66.256 27.936H65.466V29.408H66.256C66.4919 29.4254 66.7263 29.3581 66.917 29.218C66.9925 29.15 67.0518 29.0659 67.0904 28.9719C67.129 28.8779 67.1459 28.7765 67.14 28.675C67.1455 28.5732 67.1284 28.4714 67.0898 28.3769C67.0513 28.2825 66.9922 28.1978 66.917 28.129Z" fill="#EED445"/>
<path d="M75.7671 26.8159H77.1901V31.8429H75.7671V26.8159Z" fill="#EED445"/>
<path d="M89.4017 26.8159V31.8429H88.2287L86.0107 29.1639V31.8429H84.6177V26.8159H85.7887L88.0067 29.4949V26.8159H89.4017Z" fill="#EED445"/>
<path d="M100.189 29.2219H101.447V31.3079C101.145 31.5211 100.81 31.6817 100.455 31.7829C100.091 31.8912 99.714 31.9468 99.3347 31.9479C98.8407 31.9556 98.3525 31.8409 97.9137 31.6139C97.5025 31.4025 97.1588 31.08 96.9217 30.6829C96.6857 30.2722 96.5615 29.8067 96.5615 29.3329C96.5615 28.8592 96.6857 28.3937 96.9217 27.9829C97.1608 27.5846 97.5074 27.2619 97.9217 27.0519C98.3679 26.8245 98.863 26.7098 99.3637 26.7179C99.797 26.7117 100.227 26.7923 100.629 26.9549C100.99 27.1043 101.31 27.3382 101.563 27.6369L100.657 28.4559C100.507 28.2794 100.32 28.1378 100.109 28.0411C99.8986 27.9444 99.6694 27.8948 99.4377 27.8959C99.2458 27.8834 99.0534 27.912 98.8734 27.9798C98.6933 28.0476 98.5299 28.1531 98.3939 28.2891C98.2578 28.4251 98.1524 28.5886 98.0846 28.7686C98.0168 28.9486 97.9882 29.141 98.0007 29.3329C97.9967 29.5917 98.0583 29.8474 98.1797 30.0759C98.295 30.2897 98.4683 30.4664 98.6797 30.5859C98.9065 30.7106 99.162 30.7737 99.4207 30.7689C99.6854 30.7712 99.9473 30.7148 100.188 30.6039L100.189 29.2219Z" fill="#EED445"/>
<path d="M117.847 31.7929C117.515 31.715 117.2 31.5796 116.915 31.3929L117.381 30.3439C117.624 30.5002 117.887 30.6208 118.164 30.7019C118.448 30.7919 118.743 30.8381 119.041 30.839C119.585 30.839 119.859 30.7019 119.859 30.4299C119.859 30.3588 119.836 30.2896 119.794 30.2321C119.753 30.1747 119.694 30.1319 119.626 30.1099C119.383 30.0143 119.132 29.941 118.876 29.891C118.554 29.8251 118.236 29.7373 117.926 29.628C117.674 29.5359 117.45 29.3814 117.274 29.1789C117.082 28.9453 116.985 28.648 117.001 28.3459C116.998 28.0499 117.086 27.7601 117.253 27.516C117.442 27.2532 117.702 27.0502 118.003 26.9309C118.392 26.7762 118.809 26.7027 119.228 26.7149C119.557 26.7144 119.885 26.7517 120.205 26.826C120.502 26.8911 120.787 27.0014 121.05 27.1529L120.613 28.2079C120.189 27.9637 119.71 27.8303 119.22 27.8199C119.007 27.8045 118.793 27.8477 118.603 27.9449C118.545 27.9775 118.496 28.0249 118.462 28.0824C118.428 28.1398 118.41 28.2052 118.41 28.2719C118.412 28.3399 118.435 28.4056 118.476 28.4595C118.517 28.5135 118.575 28.5529 118.64 28.572C118.879 28.6654 119.127 28.7354 119.379 28.7809C119.702 28.846 120.02 28.9338 120.33 29.0439C120.581 29.1371 120.805 29.2898 120.984 29.4889C121.177 29.7204 121.276 30.016 121.261 30.3169C121.264 30.6094 121.176 30.8955 121.009 31.1359C120.818 31.3989 120.556 31.6021 120.254 31.7219C119.866 31.8779 119.451 31.9524 119.033 31.9409C118.633 31.9431 118.234 31.8933 117.847 31.7929Z" fill="#EED445"/>
<path d="M129.427 31.6078C129.012 31.39 128.664 31.0627 128.421 30.6613C128.178 30.26 128.05 29.7999 128.05 29.3308C128.05 28.8618 128.178 28.4017 128.421 28.0003C128.664 27.5989 129.012 27.2716 129.427 27.0538C129.872 26.8319 130.363 26.7163 130.86 26.7163C131.358 26.7163 131.849 26.8319 132.294 27.0538C132.709 27.2716 133.057 27.5989 133.3 28.0003C133.543 28.4017 133.671 28.8618 133.671 29.3308C133.671 29.7999 133.543 30.26 133.3 30.6613C133.057 31.0627 132.709 31.39 132.294 31.6078C131.849 31.8299 131.358 31.9455 130.86 31.9455C130.363 31.9455 129.872 31.8299 129.427 31.6078ZM131.551 30.5868C131.757 30.467 131.926 30.2917 132.038 30.0808C132.155 29.8483 132.217 29.5914 132.217 29.3308C132.217 29.0703 132.155 28.8134 132.038 28.5808C131.925 28.3707 131.757 28.1956 131.551 28.0748C131.34 27.9574 131.103 27.8958 130.861 27.8958C130.62 27.8958 130.383 27.9574 130.172 28.0748C129.965 28.195 129.796 28.3701 129.683 28.5808C129.565 28.8133 129.504 29.0702 129.504 29.3308C129.504 29.5914 129.565 29.8483 129.683 30.0808C129.795 30.2922 129.964 30.4676 130.172 30.5868C130.383 30.7043 130.62 30.7659 130.861 30.7659C131.103 30.7659 131.34 30.7043 131.551 30.5868Z" fill="#EED445"/>
<path d="M140.818 26.8159H142.241V30.7159H144.641V31.8429H140.818V26.8159Z" fill="#EED445"/>
<path d="M152.137 31.3329C151.921 31.102 151.754 30.8294 151.647 30.5317C151.541 30.234 151.496 29.9176 151.516 29.602V26.8149H152.937V29.558C152.937 30.3613 153.255 30.7629 153.892 30.7629C154.525 30.7629 154.84 30.363 154.84 29.558V26.8149H156.24V29.602C156.26 29.9176 156.215 30.234 156.108 30.5317C156.002 30.8294 155.835 31.102 155.619 31.3329C155.125 31.7281 154.511 31.9434 153.878 31.9434C153.245 31.9434 152.631 31.7281 152.137 31.3329Z" fill="#EED445"/>
<path d="M164.607 27.9429H163.062V26.8159H167.562V27.9429H166.026V31.8429H164.603L164.607 27.9429Z" fill="#EED445"/>
<path d="M174.51 26.8159H175.933V31.8429H174.51V26.8159Z" fill="#EED445"/>
<path d="M184.46 31.608C184.045 31.3902 183.697 31.0629 183.454 30.6616C183.211 30.2602 183.083 29.8001 183.083 29.331C183.083 28.862 183.211 28.4019 183.454 28.0005C183.697 27.5992 184.045 27.2719 184.46 27.054C184.905 26.8321 185.395 26.7166 185.893 26.7166C186.39 26.7166 186.88 26.8321 187.325 27.054C187.741 27.2719 188.088 27.5992 188.331 28.0005C188.574 28.4019 188.702 28.862 188.702 29.331C188.702 29.8001 188.574 30.2602 188.331 30.6616C188.088 31.0629 187.741 31.3902 187.325 31.608C186.88 31.83 186.39 31.9455 185.893 31.9455C185.395 31.9455 184.905 31.83 184.46 31.608ZM186.582 30.587C186.79 30.4678 186.959 30.2924 187.071 30.081C187.189 29.8485 187.25 29.5916 187.25 29.331C187.25 29.0705 187.189 28.8135 187.071 28.581C186.958 28.3704 186.789 28.1952 186.582 28.075C186.371 27.9576 186.134 27.896 185.893 27.896C185.651 27.896 185.414 27.9576 185.203 28.075C184.997 28.1962 184.828 28.3711 184.714 28.581C184.598 28.8139 184.537 29.0707 184.537 29.331C184.537 29.5914 184.598 29.8482 184.714 30.081C184.827 30.2916 184.997 30.4668 185.203 30.587C185.414 30.7045 185.651 30.7661 185.893 30.7661C186.134 30.7661 186.371 30.7045 186.582 30.587Z" fill="#EED445"/>
<path d="M200.629 26.8159V31.8429H199.46L197.24 29.1639V31.8429H195.847V26.8159H197.014L199.233 29.4949V26.8159H200.629Z" fill="#EED445"/>
<path d="M208.63 31.7929C208.298 31.7147 207.982 31.5793 207.696 31.3929L208.164 30.3439C208.406 30.5003 208.67 30.6209 208.947 30.7019C209.23 30.7917 209.525 30.8379 209.822 30.839C210.368 30.839 210.641 30.7019 210.641 30.4299C210.64 30.3589 210.617 30.2899 210.576 30.2325C210.534 30.1751 210.475 30.1323 210.408 30.1099C210.165 30.0144 209.913 29.9411 209.657 29.891C209.335 29.8251 209.018 29.7373 208.709 29.628C208.457 29.5363 208.232 29.3818 208.057 29.1789C207.865 28.9452 207.767 28.648 207.784 28.3459C207.781 28.0502 207.868 27.7606 208.034 27.516C208.224 27.2533 208.485 27.0503 208.786 26.9309C209.175 26.7762 209.592 26.7027 210.011 26.7149C210.339 26.7143 210.667 26.7516 210.987 26.826C211.285 26.8912 211.571 27.0014 211.836 27.1529L211.396 28.2089C210.971 27.9647 210.492 27.8313 210.003 27.8209C209.79 27.8053 209.577 27.8486 209.387 27.9459C209.328 27.9781 209.279 28.0253 209.245 28.0828C209.21 28.1404 209.192 28.206 209.192 28.2729C209.194 28.3408 209.217 28.4063 209.258 28.4602C209.299 28.5141 209.357 28.5536 209.422 28.5729C209.661 28.6659 209.908 28.7359 210.161 28.7819C210.484 28.8465 210.802 28.9344 211.113 29.0449C211.364 29.1373 211.589 29.2901 211.767 29.49C211.961 29.7209 212.059 30.0169 212.043 30.3179C212.046 30.6105 211.958 30.8968 211.791 31.1369C211.601 31.4001 211.34 31.6035 211.038 31.723C210.65 31.8787 210.235 31.9533 209.817 31.9419C209.416 31.9439 209.017 31.8938 208.63 31.7929Z" fill="#EED445"/>
<path d="M92.1447 10.7119L102.795 20.9259H97.8087L89.6487 13.1059L87.1587 10.7119L89.6487 8.32294L97.8037 0.50293H102.794L92.1447 10.7119Z" fill="#EED445"/>
<path d="M85.499 0.501953H81.729V20.925H85.499V0.501953Z" fill="#EED445"/>
<path d="M208.067 0.501953V8.82898H193.117V0.501953H189.35V20.925H193.12V12.598H208.07V20.925H211.84V0.501953H208.067Z" fill="#EED445"/>
<path d="M185.364 4.27197V0.501953H164.478V20.925H185.364V17.155H168.248V4.27197H185.364Z" fill="#EED445"/>
<path d="M160.628 0.501953H139.776V20.925H160.629V17.155H143.544V4.27197H160.627L160.628 0.501953Z" fill="#EED445"/>
<path d="M158.567 8.82886H145.642V12.5989H158.567V8.82886Z" fill="#EED445"/>
<path d="M135.761 0.501953H113.629V4.27197H122.811V20.926H126.581V4.27197H135.761V0.501953Z" fill="#EED445"/>
<path d="M74.0079 0.501953H72.7599L64.9449 8.31696L57.1359 0.501953H52.1079V20.924H55.8799V4.58395L62.2739 10.984L64.9389 13.649L67.6039 10.984L74.0039 4.58395V20.924H77.7739V0.501953H74.0079Z" fill="#EED445"/>
</g>
<defs>
<clipPath id="clip0_2038_413">
<rect width="212.041" height="32.174" fill="white"/>
</clipPath>
</defs>
</svg>
