<svg width="243" height="32" viewBox="0 0 243 32" fill="none" xmlns="http://www.w3.org/2000/svg">
<g clip-path="url(#clip0_2038_390)">
<mask id="mask0_2038_390" style="mask-type:luminance" maskUnits="userSpaceOnUse" x="0" y="0" width="243" height="32">
<path d="M243 0H0V32H243V0Z" fill="white"/>
</mask>
<g mask="url(#mask0_2038_390)">
<path d="M128.528 13.9602H140.627V26.0607H128.528V13.9602ZM134.577 31.9946C137.349 31.9928 140.035 31.0297 142.177 29.2693C144.319 27.509 145.784 25.0603 146.323 22.3405C146.862 19.6207 146.442 16.7981 145.134 14.3535C143.826 11.9089 141.711 9.99366 139.149 8.93398C136.587 7.87431 133.737 7.7358 131.085 8.54207C128.433 9.34833 126.142 11.0495 124.603 13.3557C123.064 15.6619 122.372 18.4305 122.645 21.1897C122.918 23.949 124.139 26.5282 126.1 28.488C127.213 29.6019 128.534 30.485 129.989 31.0868C131.444 31.6886 133.003 31.9971 134.577 31.9946Z" fill="#EED445"/>
<path d="M105.045 13.3559C106.361 13.3558 107.647 13.7459 108.741 14.477C109.835 15.2081 110.688 16.2473 111.192 17.4631C111.695 18.6789 111.827 20.0168 111.57 21.3075C111.314 22.5982 110.68 23.7838 109.75 24.7144C108.819 25.645 107.634 26.2787 106.344 26.5354C105.053 26.7921 103.716 26.6603 102.5 26.1567C101.284 25.653 100.246 24.8001 99.5146 23.7059C98.7837 22.6116 98.3936 21.3251 98.3937 20.0091C98.3956 18.2452 99.0971 16.554 100.344 15.3067C101.591 14.0594 103.282 13.3578 105.045 13.3559ZM105.045 31.9997C107.416 31.9997 109.734 31.2965 111.706 29.9789C113.677 28.6614 115.213 26.7887 116.121 24.5977C117.028 22.4067 117.265 19.9958 116.803 17.6699C116.34 15.3439 115.199 13.2074 113.522 11.5305C111.846 9.85361 109.71 8.71161 107.384 8.24896C105.059 7.7863 102.648 8.02375 100.458 8.93129C98.2674 9.83883 96.3952 11.3757 95.0779 13.3475C93.7607 15.3194 93.0576 17.6376 93.0576 20.0091C93.0615 23.188 94.3258 26.2356 96.5731 28.4834C98.8204 30.7312 101.867 31.9958 105.045 31.9997Z" fill="#EED445"/>
<path d="M72.1843 17.9331L80.9746 14.1972V30.9288H86.7363V9.43237H79.4958L72.1843 12.4236V9.43237H66.4219V30.928H72.1843V17.9331Z" fill="#EED445"/>
<path d="M55.8279 9.44067H50.065V25.7962H46.2856V30.9186H59.6051V25.7962H55.8279V9.44067Z" fill="#EED445"/>
<path d="M55.8274 0H50.0649V5.76379H55.8274V0Z" fill="#EED445"/>
<path d="M5.76247 11.8782V9.43207H0V30.9293H5.76247V17.5108L16.4195 12.9453L14.8418 8.04761L5.76247 11.8782Z" fill="#EED445"/>
<path d="M25.8204 18.3969H34.9137V13.9404C33.4699 13.7899 32.0156 13.7672 30.5677 13.8724C27.8839 14.0659 26.0656 15.7838 25.8196 18.3985M39.4761 9.73661V22.5314H25.8454C25.8487 22.5412 26.5141 25.2925 29.8363 25.9474C33.5172 26.6737 37.6447 26.2345 39.4753 25.9441V30.827C37.5252 31.1221 35.5555 31.2683 33.5833 31.2642C29.7437 31.2642 26.2968 30.9665 23.3047 28.5117C20.5545 26.2533 19.6147 23.5332 19.6147 20.1939C19.6147 14.8574 22.3318 11.5951 26.4125 10.1406C29.8425 8.91726 34.3204 8.996 39.4741 9.73661" fill="#EED445"/>
<path d="M166.891 16.6353V8.68407H169.525C169.961 8.6721 170.396 8.74926 170.801 8.91085C171.122 9.04172 171.41 9.24084 171.647 9.4944C171.852 9.71814 172.012 9.97954 172.118 10.2641C172.213 10.5174 172.263 10.7854 172.267 11.056C172.276 11.5211 172.16 11.9801 171.933 12.3859C171.696 12.7846 171.348 13.1056 170.932 13.3095L172.768 16.6357H171.075L169.465 13.5006H168.334V16.6357L166.891 16.6353ZM168.333 12.26H169.537C169.7 12.2699 169.863 12.2453 170.016 12.1877C170.169 12.1301 170.308 12.0409 170.424 11.9258C170.528 11.8181 170.609 11.6911 170.663 11.5521C170.717 11.413 170.743 11.2647 170.74 11.1155C170.746 10.9608 170.719 10.8067 170.662 10.6629C170.604 10.5192 170.518 10.3891 170.407 10.281C170.29 10.1724 170.153 10.0881 170.004 10.0329C169.855 9.9777 169.696 9.95273 169.537 9.95944H168.333L168.333 12.26Z" fill="#EED445"/>
<path d="M181.312 16.6359V8.68433H186.461V10.0077H182.812V11.8793H185.493V13.2162H182.812V15.29H186.733V16.6372L181.312 16.6359Z" fill="#EED445"/>
<path d="M194.792 16.636L197.807 8.68481H199.356L202.371 16.636H200.703L200.012 14.6213H197.056L196.365 16.636H194.792ZM197.473 13.3811H199.583L198.534 10.2936L197.473 13.3811Z" fill="#EED445"/>
<path d="M210.75 16.6359V8.68433H212.251V15.3011H216.173V16.6359H210.75Z" fill="#EED445"/>
<path d="M166.892 30.9248V22.9736H172.04V24.297H168.391V26.1686H171.073V27.5043H168.391V29.5781H172.313V30.9252L166.892 30.9248Z" fill="#EED445"/>
<path d="M180.633 29.6494L181.682 28.6836C181.819 28.8266 181.978 28.9818 182.159 29.1491C182.355 29.3243 182.576 29.4689 182.815 29.578C183.092 29.7019 183.393 29.7629 183.696 29.7568C184.074 29.7876 184.448 29.6699 184.739 29.4288C184.847 29.3315 184.932 29.2129 184.991 29.0804C185.049 28.9479 185.08 28.8047 185.079 28.6599C185.085 28.502 185.049 28.3455 184.976 28.2055C184.903 28.0655 184.795 27.9468 184.662 27.861C184.201 27.6059 183.695 27.4398 183.172 27.3714C182.742 27.2992 182.333 27.1322 181.975 26.8825C181.675 26.6692 181.433 26.3847 181.271 26.0546C181.118 25.7408 181.039 25.3963 181.039 25.0474C181.037 24.6513 181.142 24.2619 181.343 23.9205C181.562 23.5587 181.881 23.2672 182.261 23.0802C182.741 22.85 183.271 22.7397 183.804 22.7587C184.17 22.7514 184.535 22.7975 184.888 22.8957C185.155 22.9714 185.409 23.0836 185.645 23.2291C185.818 23.3357 185.976 23.4638 186.116 23.6104C186.228 23.7335 186.306 23.8233 186.355 23.879L185.365 24.8091C185.318 24.7607 185.224 24.6779 185.085 24.559C184.923 24.425 184.742 24.3146 184.549 24.2309C184.298 24.1257 184.028 24.0752 183.755 24.0829C183.591 24.0689 183.426 24.0881 183.27 24.1392C183.113 24.1904 182.968 24.2725 182.844 24.3806C182.758 24.4559 182.689 24.5474 182.638 24.6498C182.588 24.7522 182.559 24.8635 182.552 24.9773C182.55 25.1102 182.579 25.2418 182.639 25.3609C182.698 25.48 182.784 25.5833 182.892 25.6621C183.293 25.9083 183.742 26.0688 184.208 26.1333C184.614 26.218 185.005 26.3606 185.37 26.5565C185.727 26.7468 186.029 27.0259 186.247 27.3668C186.484 27.7687 186.599 28.2306 186.58 28.6968C186.586 29.1395 186.457 29.5736 186.211 29.9418C185.955 30.3195 185.604 30.6222 185.192 30.8186C184.733 31.0387 184.229 31.1488 183.721 31.1401C182.843 31.1589 181.987 30.8651 181.307 30.3113C181.061 30.1131 180.836 29.8912 180.633 29.6494Z" fill="#EED445"/>
<path d="M197.235 30.9248V24.2966H194.542V22.9736H201.43V24.297H198.736V30.9248H197.235Z" fill="#EED445"/>
<path d="M207.997 30.9248L211.012 22.9736H212.561L215.575 30.9248H213.906L213.215 28.9101H210.259L209.568 30.9248H207.997ZM210.678 27.67H212.787L211.738 24.5824L210.678 27.67Z" fill="#EED445"/>
<path d="M224.837 30.9248V24.2966H222.144V22.9736H229.032V24.297H226.338V30.9248H224.837Z" fill="#EED445"/>
<path d="M237.578 30.9248V22.9736H242.726V24.297H239.077V26.1686H241.758V27.5043H239.077V29.5781H242.998V30.9252L237.578 30.9248Z" fill="#EED445"/>
</g>
</g>
<defs>
<clipPath id="clip0_2038_390">
<rect width="243" height="32" fill="white"/>
</clipPath>
</defs>
</svg>
