<svg width="72" height="72" viewBox="0 0 72 72" fill="none" xmlns="http://www.w3.org/2000/svg">
<path d="M31.77 59.64C28.7605 59.2152 25.8355 58.3245 23.1 57L9 60L12.9 48.3C5.928 37.989 8.622 24.684 19.2 17.178C29.778 9.67502 44.97 10.29 54.735 18.618C59.43 22.623 62.172 27.813 62.865 33.201" stroke="#EED445" stroke-width="3" stroke-linecap="round" stroke-linejoin="round"/>
<path d="M53.9999 66L64.0499 56.148C64.6662 55.55 65.1564 54.8345 65.4916 54.0439C65.8269 53.2533 66.0003 52.4035 66.0017 51.5447C66.0031 50.6859 65.8324 49.8356 65.4998 49.0439C65.1671 48.2521 64.6792 47.5351 64.0649 46.935C62.8113 45.709 61.1285 45.0211 59.375 45.0177C57.6216 45.0143 55.9362 45.6959 54.6779 46.917L54.0059 47.577L53.3369 46.917C52.0834 45.6919 50.4012 45.0045 48.6485 45.0012C46.8958 44.9978 45.211 45.6788 43.9529 46.899C43.3364 47.4969 42.8459 48.2122 42.5104 49.0027C42.1749 49.7932 42.0012 50.643 41.9995 51.5017C41.9978 52.3605 42.1682 53.2109 42.5006 54.0027C42.833 54.7946 43.3207 55.5118 43.9349 56.112L53.9999 66Z" stroke="#EED445" stroke-width="3" stroke-linecap="round" stroke-linejoin="round"/>
</svg>
