<svg width="72" height="72" viewBox="0 0 72 72" fill="none" xmlns="http://www.w3.org/2000/svg">
<path d="M58.4999 37.716L35.9999 60L13.4999 37.716C12.0158 36.2718 10.8469 34.536 10.0666 32.6179C9.28629 30.6998 8.91161 28.6408 8.96614 26.5708C9.02067 24.5007 9.50322 22.4644 10.3834 20.59C11.2636 18.7156 12.5223 17.0437 14.0804 15.6797C15.6384 14.3157 17.462 13.289 19.4364 12.6644C21.4107 12.0398 23.4929 11.8307 25.552 12.0504C27.6111 12.27 29.6024 12.9137 31.4006 13.9407C33.1987 14.9677 34.7647 16.356 35.9999 18.018C37.2405 16.368 38.8083 14.9919 40.6052 13.9758C42.4021 12.9596 44.3894 12.3253 46.4427 12.1125C48.496 11.8998 50.5712 12.1131 52.5382 12.7392C54.5053 13.3652 56.322 14.3906 57.8746 15.7511C59.4272 17.1115 60.6822 18.7778 61.5612 20.6457C62.4402 22.5135 62.9242 24.5426 62.9829 26.6061C63.0416 28.6696 62.6737 30.723 61.9023 32.6377C61.131 34.5525 59.9727 36.2874 58.4999 37.734" stroke="#EED445" stroke-width="2" stroke-linecap="round" stroke-linejoin="round"/>
<path d="M36 18L26.121 27.879C25.5586 28.4416 25.2427 29.2045 25.2427 30C25.2427 30.7955 25.5586 31.5584 26.121 32.121L27.75 33.75C29.82 35.82 33.18 35.82 35.25 33.75L38.25 30.75C40.0403 28.9598 42.4683 27.9541 45 27.9541C47.5318 27.9541 49.9598 28.9598 51.75 30.75L58.5 37.5" stroke="#EED445" stroke-width="2" stroke-linecap="round" stroke-linejoin="round"/>
<path d="M37.5 46.5L43.5 52.5" stroke="#EED445" stroke-width="2" stroke-linecap="round" stroke-linejoin="round"/>
<path d="M45 39L51 45" stroke="#EED445" stroke-width="2" stroke-linecap="round" stroke-linejoin="round"/>
</svg>
