<svg width="129" height="27" viewBox="0 0 129 27" fill="none" xmlns="http://www.w3.org/2000/svg">
<path d="M42.4697 25.9971V0H45.9236V13.7413L50.046 7.50201H52.0144V10.8816L49.5632 14.3355L52.0144 23.0631V25.9971H49.3775L47.0749 17.9008L45.9236 19.5349V25.9971H42.4697Z" fill="#EED445"/>
<path d="M37.4648 25.9971V7.50201H40.993V25.9971H37.4648ZM37.4648 4.93944V0H40.993V4.93944H37.4648Z" fill="#EED445"/>
<path d="M29.8848 25.9971V7.50204H32.7444L33.4129 9.099C33.71 8.35623 34.6385 7.31635 35.9755 7.31635H36.5326V11.2159H35.5298C34.23 11.2159 33.4129 12.1444 33.4129 13.5556V25.9971H29.8848Z" fill="#EED445"/>
<path d="M27.0001 25.9971C24.5861 25.9971 23.0263 24.7343 23.0263 21.7261V10.4731H21.2808V7.50201H23.0263V4.23381L26.703 2.93396V7.50201H28.7828V10.4731H26.5544V21.9489C26.5544 22.5432 27.0373 22.8403 27.5572 22.8403H28.7828V25.9971H27.0001Z" fill="#EED445"/>
<path d="M14.0321 26.3684C12.5837 26.3684 11.0981 25.6257 11.0981 23.2488V18.8293C11.0981 16.4153 12.7694 15.4497 14.3292 15.4497H16.6318V11.0673C16.6318 10.6216 16.3718 10.2503 15.6291 10.2503C15.1091 10.2503 14.7006 10.5474 14.7006 11.0673V14.2612H11.2096V11.0673C11.2096 8.69044 12.8808 7.13062 15.6291 7.13062C18.303 7.13062 20.16 8.69044 20.16 11.0673V25.997H17.3003L16.9289 24.5486C16.7432 25.5142 15.9633 26.3684 14.6263 26.3684H14.0321ZM14.6263 22.5803C14.6263 23.1002 14.9606 23.3602 15.4805 23.3602C15.9633 23.3602 16.4461 23.026 16.6318 22.5803V18.3465H15.5548C14.9606 18.3465 14.6263 18.7179 14.6263 19.2378V22.5803Z" fill="#EED445"/>
<path d="M0 25.9971V6.10352e-05H4.9023C7.53914 6.10352e-05 9.80459 1.6713 9.80459 4.04817V11.6987C9.80459 14.0756 7.53914 15.7468 4.9023 15.7468H3.89955V25.9971H0ZM3.89955 12.2187H4.9023C5.3851 12.2187 5.90504 11.9587 5.90504 11.4388V4.30814C5.90504 3.7882 5.3851 3.52823 4.9023 3.52823H3.89955V12.2187Z" fill="#EED445"/>
<path d="M118.806 25.9971V0H122.26V13.7413L126.382 7.50201H128.35V10.8816L125.899 14.3355L128.35 23.0631V25.9971H125.713L123.411 17.9008L122.26 19.5349V25.9971H118.806Z" fill="#EED445"/>
<path d="M112.782 26.3684C110.146 26.3684 108.251 24.8085 108.251 22.4317V11.0673C108.251 8.69038 110.146 7.13055 112.782 7.13055C115.419 7.13055 117.313 8.69038 117.313 11.0673V17.8636H111.78V22.4317C111.78 22.9516 112.3 23.2116 112.782 23.2116C113.265 23.2116 113.785 22.9516 113.785 22.4317V19.5349H117.313V22.4317C117.313 24.8085 115.419 26.3684 112.782 26.3684ZM111.78 15.0782H113.785V11.0673C113.785 10.5473 113.265 10.2873 112.782 10.2873C112.3 10.2873 111.78 10.5473 111.78 11.0673V15.0782Z" fill="#EED445"/>
<path d="M102.228 26.3684C99.5913 26.3684 97.6973 24.8086 97.6973 22.4317V11.0673C97.6973 8.69042 99.5913 7.1306 102.228 7.1306C104.865 7.1306 106.759 8.69042 106.759 11.0673V14.9297H103.231V11.0673C103.231 10.5474 102.711 10.2874 102.228 10.2874C101.745 10.2874 101.225 10.5474 101.225 11.0673V22.4317C101.225 22.9517 101.745 23.2116 102.228 23.2116C102.711 23.2116 103.231 22.9517 103.231 22.4317V18.5693H106.759V22.4317C106.759 24.8086 104.865 26.3684 102.228 26.3684ZM98.1058 1.11414H100.928L102.228 3.08248L103.528 1.11414H106.351L104.234 5.49649H100.223L98.1058 1.11414Z" fill="#EED445"/>
<path d="M91.674 26.3684C89.0371 26.3684 87.1431 24.8085 87.1431 22.4317V11.0673C87.1431 8.69038 89.0371 7.13055 91.674 7.13055C94.3108 7.13055 96.2049 8.69038 96.2049 11.0673V17.8636H90.6712V22.4317C90.6712 22.9516 91.1912 23.2116 91.674 23.2116C92.1568 23.2116 92.6767 22.9516 92.6767 22.4317V19.5349H96.2049V22.4317C96.2049 24.8085 94.3108 26.3684 91.674 26.3684ZM90.6712 15.0782H92.6767V11.0673C92.6767 10.5473 92.1568 10.2873 91.674 10.2873C91.1912 10.2873 90.6712 10.5473 90.6712 11.0673V15.0782Z" fill="#EED445"/>
<path d="M84.7861 25.9971C83.1149 25.9971 81.6665 24.9943 81.6665 22.8031V0H85.1947V22.1346C85.1947 22.6174 85.4918 22.8403 85.9003 22.8403H86.3831V25.9971H84.7861Z" fill="#EED445"/>
<path d="M74.0467 26.3684C72.5983 26.3684 71.1128 25.6256 71.1128 23.2487V18.8292C71.1128 16.4152 72.784 15.4496 74.3439 15.4496H76.6464V11.0673C76.6464 10.6216 76.3865 10.2502 75.6437 10.2502C75.1238 10.2502 74.7152 10.5473 74.7152 11.0673V14.2612H71.2242V11.0673C71.2242 8.69038 72.8954 7.13055 75.6437 7.13055C78.3177 7.13055 80.1746 8.69038 80.1746 11.0673V25.997H77.3149L76.9436 24.5486C76.7579 25.5142 75.978 26.3684 74.641 26.3684H74.0467ZM74.641 22.5802C74.641 23.1002 74.9752 23.3601 75.4952 23.3601C75.978 23.3601 76.4608 23.0259 76.6464 22.5802V18.3464H75.5694C74.9752 18.3464 74.641 18.7178 74.641 19.2378V22.5802Z" fill="#EED445"/>
<path d="M60.0146 25.9971V0H64.9169C67.5538 0 69.8192 1.67124 69.8192 4.04811V11.6987C69.8192 14.0755 67.5538 15.7468 64.9169 15.7468H63.9142V25.9971H60.0146ZM63.9142 12.2186H64.9169C65.3997 12.2186 65.9197 11.9586 65.9197 11.4387V4.30808C65.9197 3.78814 65.3997 3.52817 64.9169 3.52817H63.9142V12.2186Z" fill="#EED445"/>
</svg>
